<svg xmlns="http://www.w3.org/2000/svg" viewBox="0 0 1172.11 196.51"><defs><style>.cls-1,.cls-4{fill:#3c9bd6;}.cls-2,.cls-5{fill:#e74f38;}.cls-3{fill:#fff;stroke:#000;stroke-linejoin:round;}.cls-4{font-size:184px;font-family:Aileron-Bold, Aileron;font-weight:700;}.cls-5{font-family:Aileron-Regular, Aileron;font-weight:400;}</style></defs><g id="Layer_2" data-name="Layer 2"><g id="Layer_1-2" data-name="Layer 1"><path class="cls-1" d="M63.66,112.69V27.83H24.92A24.92,24.92,0,0,0,0,52.75v77.42a24.92,24.92,0,0,0,24.92,24.92H63.66V131h0V112.69Z"/><path class="cls-2" d="M102.62,27.83H63.75V70.56h0v78.33h0v6.2h38.87a24.92,24.92,0,0,0,24.92-24.92V52.75A24.92,24.92,0,0,0,102.62,27.83Z"/><path id="svg_1" data-name="svg 1" class="cls-3" d="M11.48,60.18h0c0-5.62,5.35-10.18,12-10.18h80.45a13.12,13.12,0,0,1,8.46,3,9.49,9.49,0,0,1,3.5,7.2V85.61h0v15.26h0c0,5.62-5.35,10.18-12,10.18H55L20.88,136.92l8-25.87H23.44c-6.61,0-12-4.56-12-10.18h0V85.61h0Z"/><text class="cls-4" transform="translate(134.47 155.48)">Funnel<tspan class="cls-5" x="609.03" y="0">Chat</tspan></text></g></g></svg>