<svg xmlns="http://www.w3.org/2000/svg" viewBox="0 0 127.54 127.26"><defs><style>.cls-1{fill:#3c9bd6;}.cls-2{fill:#e74f38;}.cls-3{fill:#fff;stroke:#000;stroke-linejoin:round;}</style></defs><g id="Layer_2" data-name="Layer 2"><g id="Layer_1-2" data-name="Layer 1"><path class="cls-1" d="M63.66,84.86V0H24.92A24.92,24.92,0,0,0,0,24.92v77.42a24.92,24.92,0,0,0,24.92,24.92H63.66V103.12h0V84.86Z"/><path class="cls-2" d="M102.62,0H63.75V42.73h0v78.34h0v6.19h38.87a24.92,24.92,0,0,0,24.92-24.92V24.92A24.92,24.92,0,0,0,102.62,0Z"/><path id="svg_1" data-name="svg 1" class="cls-3" d="M11.48,32.35h0c0-5.62,5.35-10.18,12-10.18h80.45a13.17,13.17,0,0,1,8.46,3,9.49,9.49,0,0,1,3.5,7.2V57.78h0V73h0c0,5.62-5.35,10.18-12,10.18H55L20.88,109.09l8-25.87H23.44c-6.61,0-12-4.56-12-10.18h0V57.78h0Z"/></g></g></svg>